ffmpeg started on 2021-11-21 at 00:24:29
Report written to "data/logs/transcoder.log"
Log level: 32
Command line:
/usr/local/bin/ffmpeg -hide_banner -loglevel warning -fflags +genpts -i pipe:0 -map v:0 -c:v:0 libx264 -b:v:0 1008k -maxrate:v:0 1078k -g:v:0 72 -keyint_min:v:0 72 -r:v:0 24 -x264-params:v:0 "scenecut=0:open_gop=0" -bufsize:v:0 504k -profile:v:0 high -map "a:0?" -c:a:0 copy -preset veryfast -var_stream_map "v:0,a:0 " -f hls -hls_time 3 -hls_list_size 3 -hls_flags program_date_time+independent_segments -segment_format_options "mpegts_flags=mpegts_copyts=1" -tune zerolatency -pix_fmt yuv420p -sc_threshold 0 -master_pl_name stream.m3u8 -strftime 1 -hls_segment_filename "http://127.0.0.1:62794/%v/stream-EIlvqzpng%s.ts" -max_muxing_queue_size 400 -method PUT -http_persistent 0 "http://127.0.0.1:62794/%v/stream.m3u8"
Input #0, flv, from 'pipe:0':
  Metadata:
    major_brand     : mp42
    minor_version   : 0
    compatible_brands: isommp42
    encoder         : Lavf58.76.100
  Duration: 00:00:00.00, start: 0.000000, bitrate: N/A
  Stream #0:0: Video: h264 (High), yuv420p(tv, bt709, progressive), 406x720 [SAR 1:1 DAR 203:360], 30 fps, 30 tbr, 1k tbn, 60 tbc
  Stream #0:1: Audio: aac (LC), 44100 Hz, stereo, fltp, 96 kb/s
Stream mapping:
  Stream #0:0 -> #0:0 (h264 (native) -> h264 (libx264))
  Stream #0:1 -> #0:1 (copy)
[libx264 @ 0x7f8c6201d800] using SAR=1/1
[libx264 @ 0x7f8c6201d800] using cpu capabilities: MMX2 SSE2Fast SSSE3 SSE4.2 AVX FMA3 BMI2 AVX2
[libx264 @ 0x7f8c6201d800] profile High, level 3.0, 4:2:0, 8-bit
[libx264 @ 0x7f8c6201d800] 264 - core 163 r3060 5db6aa6 - H.264/MPEG-4 AVC codec - Copyleft 2003-2021 - http://www.videolan.org/x264.html - options: cabac=1 ref=1 deblock=1:0:0 analyse=0x3:0x113 me=hex subme=2 psy=1 psy_rd=1.00:0.00 mixed_ref=0 me_range=16 chroma_me=1 trellis=0 8x8dct=1 cqm=0 deadzone=21,11 fast_pskip=1 chroma_qp_offset=0 threads=8 lookahead_threads=8 sliced_threads=1 slices=8 nr=0 decimate=1 interlaced=0 bluray_compat=0 constrained_intra=0 bframes=0 weightp=1 keyint=72 keyint_min=37 scenecut=0 intra_refresh=0 rc_lookahead=0 rc=abr mbtree=0 bitrate=1008 ratetol=1.0 qcomp=0.60 qpmin=0 qpmax=69 qpstep=4 vbv_maxrate=1078 vbv_bufsize=504 nal_hrd=none filler=0 ip_ratio=1.40 aq=1:1.00
Output #0, hls, to 'http://127.0.0.1:62794/%v/stream.m3u8':
  Metadata:
    major_brand     : mp42
    minor_version   : 0
    compatible_brands: isommp42
    encoder         : Lavf58.76.100
  Stream #0:0: Video: h264, yuv420p(tv, bt709, progressive), 406x720 [SAR 1:1 DAR 203:360], q=2-31, 1008 kb/s, 24 fps, 90k tbn
    Metadata:
      encoder         : Lavc58.134.100 libx264
    Side data:
      cpb: bitrate max/min/avg: 1078000/0/1008000 buffer size: 504000 vbv_delay: N/A
  Stream #0:1: Audio: aac (LC), 44100 Hz, stereo, fltp, 96 kb/s
frame=    1 fps=0.0 q=26.0 size=N/A time=00:00:00.25 bitrate=N/A speed=43.5x    frame=   40 fps=0.0 q=19.0 size=N/A time=00:00:01.85 bitrate=N/A dup=0 drop=8 speed= 3.5x    frame=   53 fps= 51 q=18.0 size=N/A time=00:00:02.36 bitrate=N/A dup=0 drop=11 speed=2.29x    frame=   64 fps= 42 q=19.0 size=N/A time=00:00:02.85 bitrate=N/A dup=0 drop=14 speed=1.86x    [hls @ 0x7f8c62018400] Opening 'http://127.0.0.1:62794/0/stream-EIlvqzpng1637429070.ts' for writing
[hls @ 0x7f8c62018400] Ope[hls @ 0x7fb646839800] Opening 'http://127.0.0.1:62794/0/stream-offline1637429063.ts' for writing
[tcp @ 0x7fb645d0ac00] Connection to tcp://127.0.0.1:62794 failed: Connection refused
[hls @ 0x7fb646839800] Failed to open file 'http://127.0.0.1:62794/0/stream-offline1637429063.ts'
[hls muxer @ 0x7fb6468d7a00] Duplicated segment filename detected: stream-offline1637429063.ts
[hls @ 0x7fb646839800] Opening 'http://127.0.0.1:62794/0/stream.m3u8' for writing
[tcp @ 0x7fb645d0ac00] Connection to tcp://127.0.0.1:62794 failed: Connection refused
frame=  183 fps=0.9 q=0.0 Lsize=N/A time=00:00:08.08 bitrate=N/A dup=1 drop=0 speed=0.0414x    
video:701kB audio:113kB subtitle:0kB other streams:0kB global headers:0kB muxing overhead: unknown
[libx264 @ 0x7fb646815e00] frame I:3     Avg QP: 6.08  size:  9475
[libx264 @ 0x7fb646815e00] frame P:180   Avg QP: 3.93  size:  3825
[libx264 @ 0x7fb646815e00] mb I  I16..4: 83.4%  2.0% 14.7%
[libx264 @ 0x7fb646815e00] mb P  I16..4: 11.0%  0.2%  0.2%  P16..4: 11.3%  2.9%  2.2%  0.0%  0.0%    skip:72.2%
[libx264 @ 0x7fb646815e00] 8x8 transform intra:1.7% inter:4.0%
[libx264 @ 0x7fb646815e00] coded y,uvDC,uvAC intra: 7.0% 10.6% 9.2% inter: 6.6% 6.1% 4.1%
[libx264 @ 0x7fb646815e00] i16 v,h,dc,p: 91%  2%  6%  1%
[libx264 @ 0x7fb646815e00] i8 v,h,dc,ddl,ddr,vr,hd,vl,hu: 26% 20% 30%  4%  6%  6%  3%  1%  4%
[libx264 @ 0x7fb646815e00] i4 v,h,dc,ddl,ddr,vr,hd,vl,hu: 28% 21% 28%  4%  5%  5%  3%  3%  3%
[libx264 @ 0x7fb646815e00] i8c dc,h,v,p: 92%  3%  3%  2%
[libx264 @ 0x7fb646815e00] Weighted P-Frames: Y:3.3% UV:0.0%
[libx264 @ 0x7fb646815e00] kb/s:752.21
Exiting normally, received signal 2.
ng
frame=  227 fps= 27 q=20.0 size=N/A time=00:00:09.66 bitrate=N/A dup=0 drop=54 speed=1.15x    frame=  242 fps= 27 q=18.0 size=N/A time=00:00:10.21 bitrate=N/A dup=0 drop=58 speed=1.15x    frame=  255 fps= 27 q=17.0 size=N/A time=00:00:10.75 bitrate=N/A dup=0 drop=61 speed=1.14x    frame=  266 fps= 27 q=18.0 size=N/A time=00:00:11.26 bitrate=N/A dup=0 drop=64 speed=1.13x    frame=  279 fps= 27 q=18.0 size=N/A time=00:00:11.74 bitrate=N/A dup=0 drop=67 speed=1.13x    [hls @ 0x7f8c62018400] Opening 'http://127.0.0.1:62794/0/stream-EIlvqzpng1637429078.ts' for writing
[hls @ 0x7f8c62018400] Opening 'http://127.0.0.1:62794/0/stream.m3u8' for writing
frame=  291 fps= 27 q=21.0 size=N/A time=00:00:12.28 bitrate=N/A dup=0 drop=70 speed=1.12x    frame=  303 fps= 26 q=18.0 size=N/A time=00:00:12.79 bitrate=N/A dup=0 drop=73 speed=1.11x    frame=  315 fps= 26 q=18.0 size=N/A time=00:00:13.25 bitrate=N/A dup=0 drop=76 speed= 1.1x    frame=  330 fps= 26 q=20.0 size=N/A time=00:00:13.90 bitrate=N/A dup=0 drop=80 speed=1.11x    frame=  343 fps= 26 q=20.0 size=N/A time=00:00:14.42 bitrate=N/A dup=0 drop=83 speed= 1.1x    frame=  354 fps= 26 q=22.0 size=N/A time=00:00:14.93 bitrate=N/A dup=0 drop=86 speed= 1.1x    [hls @ 0x7f8c62018400] Opening 'http://127.0.0.1:62794/0/stream-EIlvqzpng1637429081.ts' for writing
[hls @ 0x7f8c62018400] Opening 'http://127.0.0.1:62794/0/stream.m3u8' for writing
frame=  367 fps= 26 q=25.0 size=N/A time=00:00:15.46 bitrate=N/A dup=0 drop=89 speed=1.09x    frame=  379 fps= 26 q=22.0 size=N/A time=00:00:15.99 bitrate=N/A dup=0 drop=92 speed=1.09x    frame=  392 fps= 26 q=19.0 size=N/A time=00:00:16.50 bitrate=N/A dup=0 drop=96 speed=1.08x    frame=  409 fps= 26 q=17.0 size=N/A time=00:00:17.18 bitrate=N/A dup=0 drop=100 speed=1.08x    frame=  420 fps= 26 q=16.0 size=N/A time=00:00:17.69 bitrate=N/A dup=0 drop=103 speed=1.08x    [hls @ 0x7f8c62018400] Opening 'http://127.0.0.1:62794/0/stream-EIlvqzpng1637429084.ts' for writing
[hls @ 0x7f8c62018400] Opening 'http://127.0.0.1:62794/0/stream.m3u8' for writing
frame=  433 fps= 26 q=20.0 size=N/A time=00:00:18.20 bitrate=N/A dup=0 drop=106 speed=1.08x    frame=  446 fps= 26 q=15.0 size=N/A time=00:00:18.71 bitrate=N/A dup=0 drop=109 speed=1.08x    frame=  458 fps= 26 q=15.0 size=N/A time=00:00:19.24 bitrate=N/A dup=0 drop=112 speed=1.08x    frame=  470 fps= 25 q=14.0 size=N/A time=00:00:19.76 bitrate=N/A dup=0 drop=115 speed=1.07x    frame=  482 fps= 25 q=13.0 size=N/A time=00:00:20.22 bitrate=N/A dup=0 drop=118 speed=1.06x    frame=  497 fps= 25 q=15.0 size=N/A time=00:00:20.89 bitrate=N/A dup=0 drop=122 speed=1.07x    [hls @ 0x7f8c62018400] Opening 'http://127.0.0.1:62794/0/stream-EIlvqzpng1637429087.ts' for writing
[hls @ 0x7f8c62018400] Opening 'http://127.0.0.1:62794/0/stream.m3u8' for writing
frame=  510 fps= 25 q=15.0 size=N/A time=00:00:21.38 bitrate=N/A dup=0 drop=125 speed=1.07x    frame=  523 fps= 25 q=15.0 size=N/A time=00:00:21.92 bitrate=N/A dup=0 drop=128 speed=1.06x    frame=  534 fps= 25 q=14.0 size=N/A time=00:00:22.43 bitrate=N/A dup=0 drop=131 speed=1.06x    frame=  547 fps= 25 q=14.0 size=N/A time=00:00:22.91 bitrate=N/A dup=0 drop=134 speed=1.06x    frame=  559 fps= 25 q=14.0 size=N/A time=00:00:23.45 bitrate=N/A dup=0 drop=137 speed=1.06x    frame=  571 fps= 25 q=15.0 size=N/A time=00:00:23.94 bitrate=N/A dup=0 drop=140 speed=1.05x    [hls @ 0x7f8c62018400] Opening 'http://127.0.0.1:62794/0/stream-EIlvqzpng1637429090.ts' for writing
[hls @ 0x7f8c62018400] Opening 'http://127.0.0.1:62794/0/stream.m3u8' for writing
frame=  587 fps= 25 q=15.0 size=N/A time=00:00:24.66 bitrate=N/A dup=0 drop=144 speed=1.06x    frame=  600 fps= 25 q=18.0 size=N/A time=00:00:25.14 bitrate=N/A dup=0 drop=148 speed=1.05x    frame=  613 fps= 25 q=21.0 size=N/A time=00:00:25.68 bitrate=N/A dup=0 drop=151 speed=1.05x    frame=  624 fps= 25 q=21.0 size=N/A time=00:00:26.19 bitrate=N/A dup=0 drop=154 speed=1.05x    frame=  637 fps= 25 q=19.0 size=N/A time=00:00:26.68 bitrate=N/A dup=0 drop=157 speed=1.05x    frame=  648 fps= 25 q=18.0 size=N/A time=00:00:27.19 bitrate=N/A dup=0 drop=160 speed=1.05x    [hls @ 0x7f8c62018400] Opening 'http://127.0.0.1:62794/0/stream-EIlvqzpng1637429093.ts' for writing
[hls @ 0x7f8c62018400] Opening 'http://127.0.0.1:62794/0/stream.m3u8' for writing
frame=  659 fps= 25 q=18.0 size=N/A time=00:00:27.65 bitrate=N/A dup=0 drop=162 speed=1.04x    frame=  677 fps= 25 q=17.0 size=N/A time=00:00:28.35 bitrate=N/A dup=0 drop=167 speed=1.05x    frame=  690 fps= 25 q=16.0 size=N/A time=00:00:28.88 bitrate=N/A dup=0 drop=170 speed=1.05x    frame=  701 fps= 25 q=20.0 size=N/A time=00:00:29.39 bitrate=N/A dup=0 drop=173 speed=1.05x    frame=  714 fps= 25 q=18.0 size=N/A time=00:00:29.90 bitrate=N/A dup=0 drop=176 speed=1.05x    [hls @ 0x7f8c62018400] Opening 'http://127.0.0.1:62794/0/stream-EIlvqzpng1637429096.ts' for writing
[hls @ 0x7f8c62018400] Opening 'http://127.0.0.1:62794/0/stream.m3u8' for writing
frame=  727 fps= 25 q=19.0 size=N/A time=00:00:30.41 bitrate=N/A dup=0 drop=179 speed=1.05x    frame=  738 fps= 25 q=19.0 size=N/A time=00:00:30.90 bitrate=N/A dup=0 drop=182 speed=1.04x    frame=  755 fps= 25 q=19.0 size=N/A time=00:00:31.62 bitrate=N/A dup=0 drop=186 speed=1.04x    frame=  767 fps= 25 q=21.0 size=N/A time=00:00:32.16 bitrate=N/A dup=0 drop=189 speed=1.04x    frame=  780 fps= 25 q=23.0 size=N/A time=00:00:32.64 bitrate=N/A dup=0 drop=193 speed=1.04x    frame=  791 fps= 25 q=21.0 size=N/A time=00:00:33.15 bitrate=N/A dup=0 drop=195 speed=1.04x    [hls @ 0x7f8c62018400] Opening 'http://127.0.0.1:62794/0/stream-EIlvqzpng1637429099.ts' for writing
[hls @ 0x7f8c62018400] Opening 'http://127.0.0.1:62794/0/stream.m3u8' for writing
frame=  804 fps= 25 q=22.0 size=N/A time=00:00:33.64 bitrate=N/A dup=0 drop=199 speed=1.04x    frame=  816 fps= 25 q=22.0 size=N/A time=00:00:34.15 bitrate=N/A dup=0 drop=202 speed=1.03x    frame=  834 fps= 25 q=21.0 size=N/A time=00:00:34.87 bitrate=N/A dup=0 drop=206 speed=1.04x    frame=  847 fps= 25 q=21.0 size=N/A time=00:00:35.41 bitrate=N/A dup=0 drop=209 speed=1.04x    frame=  859 fps= 25 q=20.0 size=N/A time=00:00:35.94 bitrate=N/A dup=0 drop=212 speed=1.04x    [hls @ 0x7f8c62018400] Opening 'http://127.0.0.1:62794/0/stream-EIlvqzpng1637429102.ts' for writing
[hls @ 0x7f8c62018400] Opening 'http://127.0.0.1:62794/0/stream.m3u8' for writing
frame=  871 fps= 25 q=21.0 size=N/A time=00:00:36.47 bitrate=N/A dup=0 drop=215 speed=1.03x    frame=  888 fps= 25 q=21.0 size=N/A time=00:00:37.15 bitrate=N/A dup=0 drop=220 speed=1.04x    frame=  899 fps= 25 q=19.0 size=N/A time=00:00:37.66 bitrate=N/A dup=0 drop=222 speed=1.04x    frame=  912 fps= 25 q=21.0 size=N/A time=00:00:38.17 bitrate=N/A dup=0 drop=226 speed=1.04x    frame=  925 fps= 25 q=21.0 size=N/A time=00:00:38.68 bitrate=N/A dup=0 drop=229 speed=1.04x    [hls @ 0x7f8c62018400] Opening 'http://127.0.0.1:62794/0/stream-EIlvqzpng1637429105.ts' for writing
[hls @ 0x7f8c62018400] Opening 'http://127.0.0.1:62794/0/stream.m3u8' for writing
frame=  937 fps= 25 q=19.0 size=N/A time=00:00:39.21 bitrate=N/A dup=0 drop=232 speed=1.04x    frame=  949 fps= 25 q=20.0 size=N/A time=00:00:39.72 bitrate=N/A dup=0 drop=235 speed=1.03x    frame=  961 fps= 25 q=20.0 size=N/A time=00:00:40.19 bitrate=N/A dup=0 drop=238 speed=1.03x    frame=  977 fps= 25 q=21.0 size=N/A time=00:00:40.84 bitrate=N/A dup=0 drop=242 speed=1.03x    frame=  990 fps= 25 q=20.0 size=N/A time=00:00:41.37 bitrate=N/A dup=0 drop=245 speed=1.03x    frame= 1002 fps= 25 q=20.0 size=N/A time=00:00:41.88 bitrate=N/A dup=0 drop=248 speed=1.03x    [hls @ 0x7f8c62018400] Opening 'http://127.0.0.1:62794/0/stream-EIlvqzpng1637429108.ts' for writing
[hls @ 0x7f8c62018400] Opening 'http://127.0.0.1:62794/0/stream.m3u8' for writing
frame= 1014 fps= 25 q=20.0 size=N/A time=00:00:42.42 bitrate=N/A dup=0 drop=251 speed=1.03x    frame= 1027 fps= 25 q=19.0 size=N/A time=00:00:42.91 bitrate=N/A dup=0 drop=254 speed=1.03x    frame= 1039 fps= 25 q=21.0 size=N/A time=00:00:43.44 bitrate=N/A dup=0 drop=257 speed=1.03x    frame= 1055 fps= 25 q=18.0 size=N/A time=00:00:44.11 bitrate=N/A dup=0 drop=261 speed=1.03x    frame= 1068 fps= 25 q=20.0 size=N/A time=00:00:44.65 bitrate=N/A dup=0 drop=265 speed=1.03x    frame= 1079 fps= 25 q=20.0 size=N/A time=00:00:45.16 bitrate=N/A dup=0 drop=267 speed=1.03x    [hls @ 0x7f8c62018400] Opening 'http://127.0.0.1:62794/0/stream-EIlvqzpng1637429111.ts' for writing
[hls @ 0x7f8c62018400] Opening 'http://127.0.0.1:62794/0/stream.m3u8' for writing
frame= 1092 fps= 25 q=20.0 size=N/A time=00:00:45.67 bitrate=N/A dup=0 drop=271 speed=1.03x    frame= 1103 fps= 25 q=19.0 size=N/A time=00:00:46.16 bitrate=N/A dup=0 drop=273 speed=1.03x    frame= 1116 fps= 25 q=19.0 size=N/A time=00:00:46.67 bitrate=N/A dup=0 drop=277 speed=1.03x    frame= 1128 fps= 25 q=18.0 size=N/A time=00:00:47.16 bitrate=N/A dup=0 drop=280 speed=1.02x    frame= 1146 fps= 25 q=18.0 size=N/A time=00:00:47.88 bitrate=N/A dup=0 drop=284 speed=1.03x    [hls @ 0x7f8c62018400] Opening 'http://127.0.0.1:62794/0/stream-EIlvqzpng1637429114.ts' for writing
[hls @ 0x7f8c62018400] Opening 'http://127.0.0.1:62794/0/stream.m3u8' for writing
frame= 1158 fps= 25 q=18.0 size=N/A time=00:00:48.41 bitrate=N/A dup=0 drop=287 speed=1.03x    frame= 1170 fps= 25 q=17.0 size=N/A time=00:00:48.92 bitrate=N/A dup=0 drop=290 speed=1.03x    frame= 1183 fps= 25 q=16.0 size=N/A time=00:00:49.45 bitrate=N/A dup=0 drop=293 speed=1.03x    frame= 1195 fps= 24 q=16.0 size=N/A time=00:00:49.94 bitrate=N/A dup=0 drop=296 speed=1.02x    frame= 1211 fps= 25 q=15.0 size=N/A time=00:00:50.66 bitrate=N/A dup=0 drop=300 speed=1.03x    [hls @ 0x7f8c62018400] Opening 'http://127.0.0.1:62794/0/stream-EIlvqzpng1637429117.ts' for writing
[hls @ 0x7f8c62018400] Opening 'http://127.0.0.1:62794/0/stream.m3u8' for writing
frame= 1225 fps= 25 q=19.0 size=N/A time=00:00:51.17 bitrate=N/A dup=0 drop=304 speed=1.03x    frame= 1237 fps= 25 q=17.0 size=N/A time=00:00:51.68 bitrate=N/A dup=0 drop=307 speed=1.03x    frame= 1248 fps= 25 q=17.0 size=N/A time=00:00:52.19 bitrate=N/A dup=0 drop=310 speed=1.03x    frame= 1262 fps= 25 q=15.0 size=N/A time=00:00:52.70 bitrate=N/A dup=0 drop=313 speed=1.03x    frame= 1273 fps= 24 q=17.0 size=N/A time=00:00:53.19 bitrate=N/A dup=0 drop=316 speed=1.02x    frame= 1291 fps= 25 q=15.0 size=N/A time=00:00:53.91 bitrate=N/A dup=0 drop=320 speed=1.03x    [hls @ 0x7f8c62018400] Opening 'http://127.0.0.1:62794/0/stream-EIlvqzpng1637429120.ts' for writing
[hls @ 0x7f8c62018400] Opening 'http://127.0.0.1:62794/0/stream.m3u8' for writing
frame= 1302 fps= 25 q=18.0 size=N/A time=00:00:54.42 bitrate=N/A dup=0 drop=323 speed=1.02x    frame= 1315 fps= 25 q=17.0 size=N/A time=00:00:54.93 bitrate=N/A dup=0 drop=326 speed=1.02x    frame= 1327 fps= 25 q=17.0 size=N/A time=00:00:55.44 bitrate=N/A dup=0 drop=329 speed=1.02x    frame= 1339 fps= 24 q=18.0 size=N/A time=00:00:55.98 bitrate=N/A dup=0 drop=332 speed=1.02x    frame= 1357 fps= 25 q=19.0 size=N/A time=00:00:56.68 bitrate=N/A dup=0 drop=337 speed=1.02x    frame= 1368 fps= 24 q=19.0 size=N/A time=00:00:57.19 bitrate=N/A dup=0 drop=340 speed=1.02x    [hls @ 0x7f8c62018400] Opening 'http://127.0.0.1:62794/0/stream-EIlvqzpng1637429123.ts' for writing
[hls @ 0x7f8c62018400] Opening 'http://127.0.0.1:62794/0/stream.m3u8' for writing
frame= 1381 fps= 24 q=20.0 size=N/A time=00:00:57.72 bitrate=N/A dup=0 drop=343 speed=1.02x    frame= 1394 fps= 24 q=18.0 size=N/A time=00:00:58.21 bitrate=N/A dup=0 drop=346 speed=1.02x    frame= 1407 fps= 24 q=19.0 size=N/A time=00:00:58.74 bitrate=N/A dup=0 drop=349 speed=1.02x    frame= 1418 fps= 24 q=18.0 size=N/A time=00:00:59.23 bitrate=N/A dup=0 drop=352 speed=1.02x    frame= 1434 fps= 24 q=19.0 size=N/A time=00:00:59.88 bitrate=N/A dup=0 drop=356 speed=1.02x    [hls @ 0x7f8c62018400] Opening 'http://127.0.0.1:62794/0/stream-EIlvqzpng1637429126.ts' for writing
[hls @ 0x7f8c62018400] Opening 'http://127.0.0.1:62794/0/stream.m3u8' for writing
frame= 1447 fps= 24 q=17.0 size=N/A time=00:01:00.41 bitrate=N/A dup=0 drop=359 speed=1.02x    frame= 1458 fps= 24 q=17.0 size=N/A time=00:01:00.92 bitrate=N/A dup=0 drop=362 speed=1.02x    frame= 1471 fps= 24 q=18.0 size=N/A time=00:01:01.44 bitrate=N/A dup=0 drop=365 speed=1.02x    frame= 1482 fps= 24 q=17.0 size=N/A time=00:01:01.92 bitrate=N/A dup=0 drop=368 speed=1.02x    frame= 1495 fps= 24 q=18.0 size=N/A time=00:01:02.46 bitrate=N/A dup=0 drop=371 speed=1.02x    frame= 1507 fps= 24 q=20.0 size=N/A time=00:01:02.94 bitrate=N/A dup=0 drop=374 speed=1.02x    [hls @ 0x7f8c62018400] Opening 'http://127.0.0.1:62794/0/stream-EIlvqzpng1637429129.ts' for writing
[hls @ 0x7f8c62018400] Opening 'http://127.0.0.1:62794/0/stream.m3u8' for writing
frame= 1524 fps= 24 q=19.0 size=N/A time=00:01:03.64 bitrate=N/A dup=0 drop=379 speed=1.02x    frame= 1537 fps= 24 q=20.0 size=N/A time=00:01:04.18 bitrate=N/A dup=0 drop=382 speed=1.02x    frame= 1548 fps= 24 q=21.0 size=N/A time=00:01:04.69 bitrate=N/A dup=0 drop=385 speed=1.02x    frame= 1561 fps= 24 q=20.0 size=N/A time=00:01:05.22 bitrate=N/A dup=0 drop=388 speed=1.02x    frame= 1574 fps= 24 q=18.0 size=N/A time=00:01:05.71 bitrate=N/A dup=0 drop=391 speed=1.02x    [hls @ 0x7f8c62018400] Opening 'http://127.0.0.1:62794/0/stream-EIlvqzpng1637429132.ts' for writing
[hls @ 0x7f8c62018400] Opening 'http://127.0.0.1:62794/0/stream.m3u8' for writing
frame= 1585 fps= 24 q=20.0 size=N/A time=00:01:06.20 bitrate=N/A dup=0 drop=394 speed=1.02x    frame= 1601 fps= 24 q=19.0 size=N/A time=00:01:06.89 bitrate=N/A dup=0 drop=398 speed=1.02x    frame= 1614 fps= 24 q=20.0 size=N/A time=00:01:07.38 bitrate=N/A dup=0 drop=401 speed=1.02x    frame= 1626 fps= 24 q=19.0 size=N/A time=00:01:07.91 bitrate=N/A dup=0 drop=404 speed=1.02x    frame= 1638 fps= 24 q=20.0 size=N/A time=00:01:08.42 bitrate=N/A dup=0 drop=407 speed=1.02x    frame= 1651 fps= 24 q=21.0 size=N/A time=00:01:08.94 bitrate=N/A dup=0 drop=410 speed=1.02x    [hls @ 0x7f8c62018400] Opening 'http://127.0.0.1:62794/0/stream-EIlvqzpng1637429135.ts' for writing
[hls @ 0x7f8c62018400] Opening 'http://127.0.0.1:62794/0/stream.m3u8' for writing
frame= 1662 fps= 24 q=20.0 size=N/A time=00:01:09.42 bitrate=N/A dup=0 drop=413 speed=1.02x    frame= 1674 fps= 24 q=21.0 size=N/A time=00:01:09.91 bitrate=N/A dup=0 drop=416 speed=1.02x    frame= 1691 fps= 24 q=19.0 size=N/A time=00:01:10.61 bitrate=N/A dup=0 drop=420 speed=1.02x    frame= 1704 fps= 24 q=20.0 size=N/A time=00:01:11.14 bitrate=N/A dup=0 drop=424 speed=1.02x    frame= 1715 fps= 24 q=19.0 size=N/A time=00:01:11.65 bitrate=N/A dup=0 drop=426 speed=1.02x    frame= 1728 fps= 24 q=21.0 size=N/A time=00:01:12.16 bitrate=N/A dup=0 drop=430 speed=1.02x    [hls @ 0x7f8c62018400] Opening 'http://127.0.0.1:62794/0/stream-EIlvqzpng1637429138.ts' for writing
[hls @ 0x7f8c62018400] Opening 'http://127.0.0.1:62794/0/stream.m3u8' for writing
frame= 1740 fps= 24 q=22.0 size=N/A time=00:01:12.65 bitrate=N/A dup=0 drop=433 speed=1.02x    frame= 1752 fps= 24 q=21.0 size=N/A time=00:01:13.16 bitrate=N/A dup=0 drop=436 speed=1.02x    frame= 1770 fps= 24 q=21.0 size=N/A time=00:01:13.88 bitrate=N/A dup=0 drop=440 speed=1.02x    frame= 1783 fps= 24 q=21.0 size=N/A time=00:01:14.42 bitrate=N/A dup=0 drop=443 speed=1.02x    frame= 1795 fps= 24 q=21.0 size=N/A time=00:01:14.95 bitrate=N/A dup=0 drop=446 speed=1.02x    [hls @ 0x7f8c62018400] Opening 'http://127.0.0.1:62794/0/stream-EIlvqzpng1637429141.ts' for writing
[hls @ 0x7f8c62018400] Opening 'http://127.0.0.1:62794/0/stream.m3u8' for writing
frame= 1807 fps= 24 q=20.0 size=N/A time=00:01:15.44 bitrate=N/A dup=0 drop=449 speed=1.02x    frame= 1819 fps= 24 q=20.0 size=N/A time=00:01:15.95 bitrate=N/A dup=0 drop=452 speed=1.01x    frame= 1836 fps= 24 q=22.0 size=N/A time=00:01:16.69 bitrate=N/A dup=0 drop=457 speed=1.02x    frame= 1849 fps= 24 q=21.0 size=N/A time=00:01:17.20 bitrate=N/A dup=0 drop=460 speed=1.02x    frame= 1862 fps= 24 q=21.0 size=N/A time=00:01:17.71 bitrate=N/A dup=0 drop=463 speed=1.02x    [hls @ 0x7f8c62018400] Opening 'http://127.0.0.1:62794/0/stream-EIlvqzpng1637429144.ts' for writing
[hls @ 0x7f8c62018400] Opening 'http://127.0.0.1:62794/0/stream.m3u8' for writing
frame= 1873 fps= 24 q=18.0 size=N/A time=00:01:18.22 bitrate=N/A dup=0 drop=466 speed=1.02x    frame= 1886 fps= 24 q=18.0 size=N/A time=00:01:18.73 bitrate=N/A dup=0 drop=469 speed=1.02x    frame= 1902 fps= 24 q=20.0 size=N/A time=00:01:19.41 bitrate=N/A dup=0 drop=473 speed=1.02x    frame= 1914 fps= 24 q=20.0 size=N/A time=00:01:19.90 bitrate=N/A dup=0 drop=476 speed=1.02x    frame= 1926 fps= 24 q=21.0 size=N/A time=00:01:20.38 bitrate=N/A dup=0 drop=479 speed=1.02x    frame= 1939 fps= 24 q=22.0 size=N/A time=00:01:20.92 bitrate=N/A dup=0 drop=482 speed=1.02x    [hls @ 0x7f8c62018400] Opening 'http://127.0.0.1:62794/0/stream-EIlvqzpng1637429147.ts' for writing
[hls @ 0x7f8c62018400] Opening 'http://127.0.0.1:62794/0/stream.m3u8' for writing
frame= 1951 fps= 24 q=22.0 size=N/A time=00:01:21.45 bitrate=N/A dup=0 drop=485 speed=1.02x    frame= 1963 fps= 24 q=22.0 size=N/A time=00:01:21.96 bitrate=N/A dup=0 drop=488 speed=1.02x    frame= 1975 fps= 24 q=21.0 size=N/A time=00:01:22.45 bitrate=N/A dup=0 drop=491 speed=1.01x    frame= 1992 fps= 24 q=22.0 size=N/A time=00:01:23.15 bitrate=N/A dup=0 drop=496 speed=1.02x    frame= 2005 fps= 24 q=22.0 size=N/A time=00:01:23.68 bitrate=N/A dup=0 drop=499 speed=1.02x    [hls @ 0x7f8c62018400] Opening 'http://127.0.0.1:62794/0/stream-EIlvqzpng1637429150.ts' for writing
[hls @ 0x7f8c62018400] Opening 'http://127.0.0.1:62794/0/stream.m3u8' for writing
frame= 2017 fps= 24 q=18.0 size=N/A time=00:01:24.21 bitrate=N/A dup=0 drop=502 speed=1.02x    frame= 2029 fps= 24 q=20.0 size=N/A time=00:01:24.73 bitrate=N/A dup=0 drop=505 speed=1.02x    frame= 2042 fps= 24 q=20.0 size=N/A time=00:01:25.21 bitrate=N/A dup=0 drop=508 speed=1.02x    frame= 2053 fps= 24 q=20.0 size=N/A time=00:01:25.70 bitrate=N/A dup=0 drop=511 speed=1.01x    frame= 2070 fps= 24 q=21.0 size=N/A time=00:01:26.37 bitrate=N/A dup=0 drop=515 speed=1.02x    frame= 2082 fps= 24 q=20.0 size=N/A time=00:01:26.88 bitrate=N/A dup=0 drop=518 speed=1.02x    [hls @ 0x7f8c62018400] Opening 'http://127.0.0.1:62794/0/stream-EIlvqzpng1637429153.ts' for writing
[hls @ 0x7f8c62018400] Opening 'http://127.0.0.1:62794/0/stream.m3u8' for writing
frame= 2094 fps= 24 q=21.0 size=N/A time=00:01:27.42 bitrate=N/A dup=0 drop=521 speed=1.02x    frame= 2107 fps= 24 q=21.0 size=N/A time=00:01:27.91 bitrate=N/A dup=0 drop=524 speed=1.02x    frame= 2119 fps= 24 q=20.0 size=N/A time=00:01:28.44 bitrate=N/A dup=0 drop=527 speed=1.02x    frame= 2131 fps= 24 q=20.0 size=N/A time=00:01:28.95 bitrate=N/A dup=0 drop=530 speed=1.01x    frame= 2148 fps= 24 q=20.0 size=N/A time=00:01:29.69 bitrate=N/A dup=0 drop=535 speed=1.02x    [hls @ 0x7f8c62018400] Opening 'http://127.0.0.1:62794/0/stream-EIlvqzpng1637429156.ts' for writing
[hls @ 0x7f8c62018400] Opening 'http://127.0.0.1:62794/0/stream.m3u8' for writing
frame= 2161 fps= 24 q=19.0 size=N/A time=00:01:30.18 bitrate=N/A dup=0 drop=538 speed=1.01x    frame= 2174 fps= 24 q=21.0 size=N/A time=00:01:30.72 bitrate=N/A dup=0 drop=541 speed=1.01x    frame= 2185 fps= 24 q=21.0 size=N/A time=00:01:31.23 bitrate=N/A dup=0 drop=544 speed=1.01x    frame= 2198 fps= 24 q=19.0 size=N/A time=00:01:31.74 bitrate=N/A dup=0 drop=547 speed=1.01x    frame= 2216 fps= 24 q=21.0 size=N/A time=00:01:32.48 bitrate=N/A dup=0 drop=552 speed=1.01x    frame= 2228 fps= 24 q=21.0 size=N/A time=00:01:33.01 bitrate=N/A dup=0 drop=555 speed=1.01x    [hls @ 0x7f8c62018400] Opening 'http://127.0.0.1:62794/0/stream-EIlvqzpng1637429159.ts' for writing
[hls @ 0x7f8c62018400] Opening 'http://127.0.0.1:62794/0/stream.m3u8' for writing
frame= 2240 fps= 24 q=21.0 size=N/A time=00:01:33.53 bitrate=N/A dup=0 drop=558 speed=1.01x    frame= 2253 fps= 24 q=19.0 size=N/A time=00:01:34.01 bitrate=N/A dup=0 drop=561 speed=1.01x    frame= 2265 fps= 24 q=21.0 size=N/A time=00:01:34.52 bitrate=N/A dup=0 drop=564 speed=1.01x    frame= 2283 fps= 24 q=20.0 size=N/A time=00:01:35.24 bitrate=N/A dup=0 drop=568 speed=1.01x    frame= 2295 fps= 24 q=19.0 size=N/A time=00:01:35.78 bitrate=N/A dup=0 drop=571 speed=1.01x    [hls @ 0x7f8c62018400] Opening 'http://127.0.0.1:62794/0/stream-EIlvqzpng1637429162.ts' for writing
[hls @ 0x7f8c62018400] Opening 'http://127.0.0.1:62794/0/stream.m3u8' for writing
frame= 2308 fps= 24 q=20.0 size=N/A time=00:01:36.31 bitrate=N/A dup=0 drop=575 speed=1.01x    frame= 2320 fps= 24 q=23.0 size=N/A time=00:01:36.85 bitrate=N/A dup=0 drop=578 speed=1.01x    frame= 2339 fps= 24 q=21.0 size=N/A time=00:01:37.61 bitrate=N/A dup=0 drop=582 speed=1.01x    frame= 2351 fps= 24 q=21.0 size=N/A time=00:01:38.12 bitrate=N/A dup=0 drop=585 speed=1.01x    frame= 2363 fps= 24 q=19.0 size=N/A time=00:01:38.61 bitrate=N/A dup=0 drop=588 speed=1.01x    frame= 2375 fps= 24 q=21.0 size=N/A time=00:01:39.12 bitrate=N/A dup=0 drop=591 speed=1.01x    [hls @ 0x7f8c62018400] Opening 'http://127.0.0.1:62794/0/stream-EIlvqzpng1637429165.ts' for writing
[hls @ 0x7f8c62018400] Opening 'http://127.0.0.1:62794/0/stream.m3u8' for writing
frame= 2387 fps= 24 q=21.0 size=N/A time=00:01:39.63 bitrate=N/A dup=0 drop=594 speed=1.01x    frame= 2404 fps= 24 q=21.0 size=N/A time=00:01:40.31 bitrate=N/A dup=0 drop=599 speed=1.01x    frame= 2416 fps= 24 q=21.0 size=N/A time=00:01:40.82 bitrate=N/A dup=0 drop=602 speed=1.01x    frame= 2427 fps= 24 q=19.0 size=N/A time=00:01:41.33 bitrate=N/A dup=0 drop=604 speed=1.01x    frame= 2440 fps= 24 q=21.0 size=N/A time=00:01:41.82 bitrate=N/A dup=0 drop=608 speed=1.01x    [hls @ 0x7f8c62018400] Opening 'http://127.0.0.1:62794/0/stream-EIlvqzpng1637429168.ts' for writing
[hls @ 0x7f8c62018400] Opening 'http://127.0.0.1:62794/0/stream.m3u8' for writing
frame= 2453 fps= 24 q=22.0 size=N/A time=00:01:42.35 bitrate=N/A dup=0 drop=611 speed=1.01x    frame= 2464 fps= 24 q=22.0 size=N/A time=00:01:42.86 bitrate=N/A dup=0 drop=614 speed=1.01x    frame= 2476 fps= 24 q=22.0 size=N/A time=00:01:43.35 bitrate=N/A dup=0 drop=617 speed=1.01x    frame= 2494 fps= 24 q=21.0 size=N/A time=00:01:44.04 bitrate=N/A dup=0 drop=621 speed=1.01x    frame= 2505 fps= 24 q=20.0 size=N/A time=00:01:44.55 bitrate=N/A dup=0 drop=624 speed=1.01x    frame= 2518 fps= 24 q=20.0 size=N/A time=00:01:45.09 bitrate=N/A dup=0 drop=627 speed=1.01x    [hls @ 0x7f8c62018400] Opening 'http://127.0.0.1:62794/0/stream-EIlvqzpng1637429171.ts' for writing
[hls @ 0x7f8c62018400] Opening 'http://127.0.0.1:62794/0/stream.m3u8' for writing
frame= 2531 fps= 24 q=19.0 size=N/A time=00:01:45.58 bitrate=N/A dup=0 drop=630 speed=1.01x    frame= 2543 fps= 24 q=20.0 size=N/A time=00:01:46.11 bitrate=N/A dup=0 drop=633 speed=1.01x    frame= 2555 fps= 24 q=19.0 size=N/A time=00:01:46.60 bitrate=N/A dup=0 drop=636 speed=1.01x    frame= 2571 fps= 24 q=18.0 size=N/A time=00:01:47.29 bitrate=N/A dup=0 drop=640 speed=1.01x    frame= 2583 fps= 24 q=18.0 size=N/A time=00:01:47.78 bitrate=N/A dup=0 drop=643 speed=1.01x    [hls @ 0x7f8c62018400] Opening 'http://127.0.0.1:62794/0/stream-EIlvqzpng1637429174.ts' for writing
[hls @ 0x7f8c62018400] Opening 'http://127.0.0.1:62794/0/stream.m3u8' for writing
frame= 2596 fps= 24 q=21.0 size=N/A time=00:01:48.32 bitrate=N/A dup=0 drop=647 speed=1.01x    frame= 2607 fps= 24 q=19.0 size=N/A time=00:01:48.83 bitrate=N/A dup=0 drop=649 speed=1.01x    frame= 2620 fps= 24 q=22.0 size=N/A time=00:01:49.32 bitrate=N/A dup=0 drop=653 speed=1.01x    frame= 2632 fps= 24 q=22.0 size=N/A time=00:01:49.85 bitrate=N/A dup=0 drop=656 speed=1.01x    frame= 2650 fps= 24 q=22.0 size=N/A time=00:01:50.55 bitrate=N/A dup=0 drop=660 speed=1.01x    frame= 2663 fps= 24 q=22.0 size=N/A time=00:01:51.08 bitrate=N/A dup=0 drop=663 speed=1.01x    [hls @ 0x7f8c62018400] Opening 'http://127.0.0.1:62794/0/stream-EIlvqzpng1637429177.ts' for writing
[hls @ 0x7f8c62018400] Opening 'http://127.0.0.1:62794/0/stream.m3u8' for writing
frame= 2674 fps= 24 q=22.0 size=N/A time=00:01:51.59 bitrate=N/A dup=0 drop=666 speed=1.01x    frame= 2687 fps= 24 q=20.0 size=N/A time=00:01:52.12 bitrate=N/A dup=0 drop=669 speed=1.01x    frame= 2699 fps= 24 q=21.0 size=N/A time=00:01:52.64 bitrate=N/A dup=0 drop=672 speed=1.01x    frame= 2716 fps= 24 q=21.0 size=N/A time=00:01:53.36 bitrate=N/A dup=0 drop=677 speed=1.01x    frame= 2729 fps= 24 q=20.0 size=N/A time=00:01:53.89 bitrate=N/A dup=0 drop=680 speed=1.01x    [hls @ 0x7f8c62018400] Opening 'http://127.0.0.1:62794/0/stream-EIlvqzpng1637429180.ts' for writing
[hls @ 0x7f8c62018400] Opening 'http://127.0.0.1:62794/0/stream.m3u8' for writing
frame= 2742 fps= 24 q=21.0 size=N/A time=00:01:54.38 bitrate=N/A dup=0 drop=683 speed=1.01x    frame= 2755 fps= 24 q=22.0 size=N/A time=00:01:54.91 bitrate=N/A dup=0 drop=686 speed=1.01x    frame= 2767 fps= 24 q=23.0 size=N/A time=00:01:55.42 bitrate=N/A dup=0 drop=689 speed=1.01x    frame= 2784 fps= 24 q=22.0 size=N/A time=00:01:56.16 bitrate=N/A dup=0 drop=694 speed=1.01x    frame= 2795 fps= 24 q=20.0 size=N/A time=00:01:56.65 bitrate=N/A dup=0 drop=696 speed=1.01x    frame= 2808 fps= 24 q=22.0 size=N/A time=00:01:57.14 bitrate=N/A dup=0 drop=700 speed=1.01x    [hls @ 0x7f8c62018400] Opening 'http://127.0.0.1:62794/0/stream-EIlvqzpng1637429183.ts' for writing
[hls @ 0x7f8c62018400] Opening 'http://127.0.0.1:62794/0/stream.m3u8' for writing
frame= 2820 fps= 24 q=22.0 size=N/A time=00:01:57.67 bitrate=N/A dup=0 drop=703 speed=1.01x    frame= 2832 fps= 24 q=22.0 size=N/A time=00:01:58.19 bitrate=N/A dup=0 drop=706 speed=1.01x    frame= 2844 fps= 24 q=22.0 size=N/A time=00:01:58.67 bitrate=N/A dup=0 drop=709 speed=1.01x    frame= 2861 fps= 24 q=22.0 size=N/A time=00:01:59.35 bitrate=N/A dup=0 drop=713 speed=1.01x    frame= 2872 fps= 24 q=21.0 size=N/A time=00:01:59.86 bitrate=N/A dup=0 drop=716 speed=1.01x    [hls @ 0x7f8c62018400] Opening 'http://127.0.0.1:62794/0/stream-EIlvqzpng1637429186.ts' for writing
[hls @ 0x7f8c62018400] Opening 'http://127.0.0.1:62794/0/stream.m3u8' for writing
frame= 2885 fps= 24 q=22.0 size=N/A time=00:02:00.39 bitrate=N/A dup=0 drop=719 speed=1.01x    frame= 2898 fps= 24 q=20.0 size=N/A time=00:02:00.88 bitrate=N/A dup=0 drop=722 speed=1.01x    frame= 2909 fps= 24 q=21.0 size=N/A time=00:02:01.39 bitrate=N/A dup=0 drop=725 speed=1.01x    frame= 2922 fps= 24 q=22.0 size=N/A time=00:02:01.90 bitrate=N/A dup=0 drop=728 speed=1.01x    frame= 2933 fps= 24 q=23.0 size=N/A time=00:02:02.39 bitrate=N/A dup=0 drop=731 speed=1.01x    frame= 2945 fps= 24 q=22.0 size=N/A time=00:02:02.85 bitrate=N/A dup=0 drop=734 speed=1.01x    [hls @ 0x7f8c62018400] Opening 'http://127.0.0.1:62794/0/stream-EIlvqzpng1637429189.ts' for writing
[hls @ 0x7f8c62018400] Opening 'http://127.0.0.1:62794/0/stream.m3u8' for writing
frame= 2961 fps= 24 q=23.0 size=N/A time=00:02:03.55 bitrate=N/A dup=0 drop=738 speed=1.01x    frame= 2973 fps= 24 q=21.0 size=N/A time=00:02:04.01 bitrate=N/A dup=0 drop=741 speed=1.01x    frame= 2986 fps= 24 q=20.0 size=N/A time=00:02:04.55 bitrate=N/A dup=0 drop=744 speed=1.01x    frame= 2997 fps= 24 q=20.0 size=N/A time=00:02:05.06 bitrate=N/A dup=0 drop=747 speed=1.01x    frame= 3010 fps= 24 q=21.0 size=N/A time=00:02:05.59 bitrate=N/A dup=0 drop=750 speed=1.01x    frame= 3023 fps= 24 q=19.0 size=N/A time=00:02:06.08 bitrate=N/A dup=0 drop=753 speed=1.01x    [hls @ 0x7f8c62018400] Opening 'http://127.0.0.1:62794/0/stream-EIlvqzpng1637429192.ts' for writing
[hls @ 0x7f8c62018400] Opening 'http://127.0.0.1:62794/0/stream.m3u8' for writing
frame= 3034 fps= 24 q=20.0 size=N/A time=00:02:06.57 bitrate=N/A dup=0 drop=756 speed=1.01x    frame= 3051 fps= 24 q=19.0 size=N/A time=00:02:07.29 bitrate=N/A dup=0 drop=760 speed=1.01x    frame= 3063 fps= 24 q=19.0 size=N/A time=00:02:07.77 bitrate=N/A dup=0 drop=763 speed=1.01x    frame= 3076 fps= 24 q=19.0 size=N/A time=00:02:08.31 bitrate=N/A dup=0 drop=767 speed=1.01x    frame= 3087 fps= 24 q=20.0 size=N/A time=00:02:08.82 bitrate=N/A dup=0 drop=769 speed=1.01x    [hls @ 0x7f8c62018400] Opening 'http://127.0.0.1:62794/0/stream-EIlvqzpng1637429195.ts' for writing
[hls @ 0x7f8c62018400] Opening 'http://127.0.0.1:62794/0/stream.m3u8' for writing
frame= 3100 fps= 24 q=21.0 size=N/A time=00:02:09.33 bitrate=N/A dup=0 drop=773 speed=1.01x    frame= 3111 fps= 24 q=19.0 size=N/A time=00:02:09.82 bitrate=N/A dup=0 drop=775 speed=1.01x    frame= 3123 fps= 24 q=19.0 size=N/A time=00:02:10.28 bitrate=N/A dup=0 drop=778 speed=1.01x    frame= 3140 fps= 24 q=19.0 size=N/A time=00:02:11.03 bitrate=N/A dup=0 drop=783 speed=1.01x    frame= 3153 fps= 24 q=19.0 size=N/A time=00:02:11.51 bitrate=N/A dup=0 drop=786 speed=1.01x    frame= 3166 fps= 24 q=19.0 size=N/A time=00:02:12.05 bitrate=N/A dup=0 drop=789 speed=1.01x    [hls @ 0x7f8c62018400] Opening 'http://127.0.0.1:62794/0/stream-EIlvqzpng1637429198.ts' for writing
[hls @ 0x7f8c62018400] Opening 'http://127.0.0.1:62794/0/stream.m3u8' for writing
frame= 3179 fps= 24 q=19.0 size=N/A time=00:02:12.58 bitrate=N/A dup=0 drop=792 speed=1.01x    frame= 3190 fps= 24 q=19.0 size=N/A time=00:02:13.07 bitrate=N/A dup=0 drop=795 speed=1.01x    frame= 3208 fps= 24 q=18.0 size=N/A time=00:02:13.81 bitrate=N/A dup=0 drop=800 speed=1.01x    frame= 3220 fps= 24 q=19.0 size=N/A time=00:02:14.35 bitrate=N/A dup=0 drop=803 speed=1.01x    frame= 3232 fps= 24 q=19.0 size=N/A time=00:02:14.86 bitrate=N/A dup=0 drop=806 speed=1.01x    [hls @ 0x7f8c62018400] Opening 'http://127.0.0.1:62794/0/stream-EIlvqzpng1637429201.ts' for writing
[hls @ 0x7f8c62018400] Opening 'http://127.0.0.1:62794/0/stream.m3u8' for writing
frame= 3245 fps= 24 q=20.0 size=N/A time=00:02:15.34 bitrate=N/A dup=0 drop=809 speed=1.01x    frame= 3256 fps= 24 q=19.0 size=N/A time=00:02:15.86 bitrate=N/A dup=0 drop=812 speed=1.01x    frame= 3268 fps= 24 q=19.0 size=N/A time=00:02:16.32 bitrate=N/A dup=0 drop=815 speed=1.01x    frame= 3286 fps= 24 q=20.0 size=N/A time=00:02:17.04 bitrate=N/A dup=0 drop=819 speed=1.01x    frame= 3298 fps= 24 q=19.0 size=N/A time=00:02:17.55 bitrate=N/A dup=0 drop=822 speed=1.01x    frame= 3310 fps= 24 q=19.0 size=N/A time=00:02:18.08 bitrate=N/A dup=0 drop=825 speed=1.01x    [hls @ 0x7f8c62018400] Opening 'http://127.0.0.1:62794/0/stream-EIlvqzpng1637429204.ts' for writing
[hls @ 0x7f8c62018400] Opening 'http://127.0.0.1:62794/0/stream.m3u8' for writing
frame= 3323 fps= 24 q=19.0 size=N/A time=00:02:18.57 bitrate=N/A dup=0 drop=828 speed=1.01x    frame= 3335 fps= 24 q=19.0 size=N/A time=00:02:19.08 bitrate=N/A dup=0 drop=831 speed=1.01x    frame= 3346 fps= 24 q=19.0 size=N/A time=00:02:19.57 bitrate=N/A dup=0 drop=834 speed=1.01x    frame= 3362 fps= 24 q=18.0 size=N/A time=00:02:20.24 bitrate=N/A dup=0 drop=838 speed=1.01x    frame= 3374 fps= 24 q=18.0 size=N/A time=00:02:20.75 bitrate=N/A dup=0 drop=841 speed=1.01x    [hls @ 0x7f8c62018400] Opening 'http://127.0.0.1:62794/0/stream-EIlvqzpng1637429207.ts' for writing
[hls @ 0x7f8c62018400] Opening 'http://127.0.0.1:62794/0/stream.m3u8' for writing
frame= 3387 fps= 24 q=20.0 size=N/A time=00:02:21.29 bitrate=N/A dup=0 drop=844 speed=1.01x    frame= 3399 fps= 24 q=18.0 size=N/A time=00:02:21.78 bitrate=N/A dup=0 drop=847 speed=1.01x    frame= 3412 fps= 24 q=22.0 size=N/A time=00:02:22.31 bitrate=N/A dup=0 drop=851 speed=1.01x    frame= 3424 fps= 24 q=23.0 size=N/A time=00:02:22.82 bitrate=N/A dup=0 drop=854 speed=1.01x    frame= 3441 fps= 24 q=22.0 size=N/A time=00:02:23.52 bitrate=N/A dup=0 drop=858 speed=1.01x    frame= 3453 fps= 24 q=22.0 size=N/A time=00:02:24.03 bitrate=N/A dup=0 drop=861 speed=1.01x    [hls @ 0x7f8c62018400] Opening 'http://127.0.0.1:62794/0/stream-EIlvqzpng1637429210.ts' for writing
[hls @ 0x7f8c62018400] Opening 'http://127.0.0.1:62794/0/stream.m3u8' for writing
frame= 3465 fps= 24 q=22.0 size=N/A time=00:02:24.52 bitrate=N/A dup=0 drop=864 speed=1.01x    frame= 3477 fps= 24 q=22.0 size=N/A time=00:02:25.05 bitrate=N/A dup=0 drop=867 speed=1.01x    frame= 3489 fps= 24 q=23.0 size=N/A time=00:02:25.54 bitrate=N/A dup=0 drop=870 speed=1.01x    frame= 3501 fps= 24 q=22.0 size=N/A time=00:02:26.05 bitrate=N/A dup=0 drop=873 speed=1.01x    frame= 3513 fps= 24 q=22.0 size=N/A time=00:02:26.54 bitrate=N/A dup=0 drop=876 speed=1.01x    [hls @ 0x7f8c62018400] Opening 'http://127.0.0.1:62794/0/stream-EIlvqzpng1637429213.ts' for writing
[hls @ 0x7f8c62018400] Opening 'http://127.0.0.1:62794/0/stream.m3u8' for writing
frame= 3530 fps= 24 q=23.0 size=N/A time=00:02:27.21 bitrate=N/A dup=0 drop=880 speed=1.01x    frame= 3542 fps= 24 q=22.0 size=N/A time=00:02:27.74 bitrate=N/A dup=0 drop=883 speed=1.01x    frame= 3554 fps= 24 q=21.0 size=N/A time=00:02:28.25 bitrate=N/A dup=0 drop=886 speed=1.01x    frame= 3567 fps= 24 q=21.0 size=N/A time=00:02:28.74 bitrate=N/A dup=0 drop=889 speed=1.01x    frame= 3579 fps= 24 q=21.0 size=N/A time=00:02:29.28 bitrate=N/A dup=0 drop=892 speed=1.01x    frame= 3591 fps= 24 q=23.0 size=N/A time=00:02:29.79 bitrate=N/A dup=0 drop=895 speed=1.01x    [hls @ 0x7f8c62018400] Opening 'http://127.0.0.1:62794/0/stream-EIlvqzpng1637429216.ts' for writing
[hls @ 0x7f8c62018400] Opening 'http://127.0.0.1:62794/0/stream.m3u8' for writing
frame= 3608 fps= 24 q=22.0 size=N/A time=00:02:30.48 bitrate=N/A dup=0 drop=900 speed=1.01x    frame= 3619 fps= 24 q=19.0 size=N/A time=00:02:30.99 bitrate=N/A dup=0 drop=902 speed=1.01x    frame= 3632 fps= 24 q=21.0 size=N/A time=00:02:31.51 bitrate=N/A dup=0 drop=906 speed=1.01x    frame= 3643 fps= 24 q=21.0 size=N/A time=00:02:31.99 bitrate=N/A dup=0 drop=908 speed=1.01x    frame= 3656 fps= 24 q=21.0 size=N/A time=00:02:32.53 bitrate=N/A dup=0 drop=912 speed=1.01x    frame= 3669 fps= 24 q=20.0 size=N/A time=00:02:33.04 bitrate=N/A dup=0 drop=915 speed=1.01x    [hls @ 0x7f8c62018400] Opening 'http://127.0.0.1:62794/0/stream-EIlvqzpng1637429219.ts' for writing
[hls @ 0x7f8c62018400] Opening 'http://127.0.0.1:62794/0/stream.m3u8' for writing
frame= 3686 fps= 24 q=21.0 size=N/A time=00:02:33.76 bitrate=N/A dup=0 drop=919 speed=1.01x    frame= 3699 fps= 24 q=19.0 size=N/A time=00:02:34.29 bitrate=N/A dup=0 drop=922 speed=1.01x    frame= 3711 fps= 24 q=19.0 size=N/A time=00:02:34.83 bitrate=N/A dup=0 drop=925 speed=1.01x    frame= 3724 fps= 24 q=21.0 size=N/A time=00:02:35.31 bitrate=N/A dup=0 drop=929 speed=1.01x    frame= 3735 fps= 24 q=19.0 size=N/A time=00:02:35.82 bitrate=N/A dup=0 drop=931 speed=1.01x    [hls @ 0x7f8c62018400] Opening 'http://127.0.0.1:62794/0/stream-EIlvqzpng1637429222.ts' for writing
[hls @ 0x7f8c62018400] Opening 'http://127.0.0.1:62794/0/stream.m3u8' for writing
frame= 3747 fps= 24 q=22.0 size=N/A time=00:02:36.29 bitrate=N/A dup=0 drop=934 speed=1.01x    frame= 3765 fps= 24 q=21.0 size=N/A time=00:02:37.03 bitrate=N/A dup=0 drop=939 speed=1.01x    frame= 3778 fps= 24 q=22.0 size=N/A time=00:02:37.54 bitrate=N/A dup=0 drop=942 speed=1.01x    frame= 3790 fps= 24 q=21.0 size=N/A time=00:02:38.08 bitrate=N/A dup=0 drop=945 speed=1.01x    frame= 3802 fps= 24 q=22.0 size=N/A time=00:02:38.56 bitrate=N/A dup=0 drop=948 speed=1.01x    frame= 3813 fps= 24 q=21.0 size=N/A time=00:02:39.05 bitrate=N/A dup=0 drop=951 speed=1.01x    [hls @ 0x7f8c62018400] Opening 'http://127.0.0.1:62794/0/stream-EIlvqzpng1637429225.ts' for writing
[hls @ 0x7f8c62018400] Opening 'http://127.0.0.1:62794/0/stream.m3u8' for writing
frame= 3825 fps= 24 q=21.0 size=N/A time=00:02:39.54 bitrate=N/A dup=0 drop=954 speed=1.01x    frame= 3842 fps= 24 q=21.0 size=N/A time=00:02:40.21 bitrate=N/A dup=0 drop=958 speed=1.01x    frame= 3853 fps= 24 q=21.0 size=N/A time=00:02:40.72 bitrate=N/A dup=0 drop=961 speed=1.01x    frame= 3866 fps= 24 q=20.0 size=N/A time=00:02:41.26 bitrate=N/A dup=0 drop=964 speed=1.01x    [hls @ 0x7f8c62018400] Opening 'http://127.0.0.1:62794/0/stream-EIlvqzpng1637429228.ts' for writing
[hls @ 0x7f8c62018400] Opening 'http://127.0.0.1:62794/0/stream.m3u8' for writing
frame= 3876 fps= 24 q=20.0 Lsize=N/A time=00:02:41.50 bitrate=N/A dup=0 drop=967 speed=1.01x    
video:19946kB audio:2522kB subtitle:0kB other streams:0kB global headers:0kB muxing overhead: unknown
[libx264 @ 0x7f8c6201d800] frame I:54    Avg QP:18.19  size: 28134
[libx264 @ 0x7f8c6201d800] frame P:3822  Avg QP:18.33  size:  4946
[libx264 @ 0x7f8c6201d800] mb I  I16..4:  8.6% 33.7% 57.7%
[libx264 @ 0x7f8c6201d800] mb P  I16..4:  2.0%  5.1%  1.1%  P16..4: 35.4% 14.9%  8.5%  0.0%  0.0%    skip:33.2%
[libx264 @ 0x7f8c6201d800] 8x8 transform intra:58.5% inter:26.4%
[libx264 @ 0x7f8c6201d800] coded y,uvDC,uvAC intra: 56.9% 73.3% 19.4% inter: 15.3% 19.2% 1.0%
[libx264 @ 0x7f8c6201d800] i16 v,h,dc,p: 40% 22% 24% 14%
[libx264 @ 0x7f8c6201d800] i8 v,h,dc,ddl,ddr,vr,hd,vl,hu: 32% 26% 22%  2%  4%  4%  4%  4%  3%
[libx264 @ 0x7f8c6201d800] i4 v,h,dc,ddl,ddr,vr,hd,vl,hu: 29% 21% 16%  5%  6%  7%  5%  6%  4%
[libx264 @ 0x7f8c6201d800] i8c dc,h,v,p: 53% 18% 23%  5%
[libx264 @ 0x7f8c6201d800] Weighted P-Frames: Y:0.2% UV:0.0%
[libx264 @ 0x7f8c6201d800] kb/s:1011.72
